<?xml version="1.0" standalone="no"?>
<!DOCTYPE svg PUBLIC "-//W3C//DTD SVG 1.1//EN" "http://www.w3.org/Graphics/SVG/1.1/DTD/svg11.dtd" >
<svg>
<metadata>
Created by FontForge 20090622 at Thu Jul 16 14:08:01 2015
 By deploy user
Copyright (c) 2011 by Jim Dore. All rights reserved.
</metadata>
<defs>
<font id="BenderSolid" horiz-adv-x="520" >
  <font-face 
    font-family="Bender Solid"
    font-weight="410"
    font-stretch="normal"
    units-per-em="1000"
    panose-1="2 0 0 0 0 0 0 0 0 0"
    ascent="800"
    descent="-200"
    x-height="600"
    cap-height="600"
    bbox="25 -154 651 810"
    underline-thickness="50"
    underline-position="-50"
    unicode-range="U+0020-U+201D"
  />
<missing-glyph horiz-adv-x="250" 
 />
    <glyph glyph-name=".notdef" horiz-adv-x="250" 
 />
    <glyph glyph-name=".null" horiz-adv-x="0" 
 />
    <glyph glyph-name="nonmarkingreturn" horiz-adv-x="333" 
 />
    <glyph glyph-name="space" unicode=" " horiz-adv-x="250" 
 />
    <glyph glyph-name="exclam" unicode="!" horiz-adv-x="205" 
d="M40 600h125v-437h-125v437zM40 106h125v-106h-125v106z" />
    <glyph glyph-name="numbersign" unicode="#" horiz-adv-x="536" 
d="M496 322h-84l-32 -109h70v-77h-93l-19 -62h-82l18 62h-90l-19 -62h-83l18 62h-60v77h82l33 109h-69v78h91l20 67h84l-20 -67h89l20 67h84l-19 -67h61v-78zM328 322h-89l-32 -109h89z" />
    <glyph glyph-name="dollar" unicode="$" horiz-adv-x="519" 
d="M479 417h-125v24q0 14 -9.5 23.5t-22.5 10.5h-123q-14 0 -24 -10t-10 -24v-88q0 -13 11 -13h5l111 28q18 4 28 4q64 0 111.5 -46.5t47.5 -111.5v-54q0 -66 -46 -112t-111 -47v-92h-126v92q-65 1 -110.5 47t-45.5 112v4h125v-4q0 -14 10 -24.5t23 -10.5h122q14 0 24 10.5
t10 24.5v54q0 24 -28 33l-116 -28q-20 -5 -36 -5q-46 0 -83 28q-51 40 -51 111v88q0 65 45.5 111.5t110.5 47.5v90h127v-91h7q63 -4 106 -49.5t43 -108.5v-24z" />
    <glyph glyph-name="ampersand" unicode="&#x26;" horiz-adv-x="526" 
d="M436 50l79 -104h-157l-41 54h-118q-66 0 -112.5 47t-46.5 112v89q0 46 27 84q-27 41 -27 89v26q0 63 47 108t112 45h48q59 0 103 -37.5t54 -94.5l2 -19v-32h-124v24q0 14 -10.5 24t-24.5 10h-48q-13 0 -23 -9.5t-11 -23.5v-21q1 -12 191 -263v141h124v-140
q0 -63 -44 -109zM199 125h23l-57 77v-43q0 -14 10 -24t24 -10z" />
    <glyph glyph-name="parenleft" unicode="(" horiz-adv-x="381" 
d="M341 -15v-139h-125q-73 0 -124.5 51.5t-51.5 124.5v551q0 74 52 125.5t124 51.5h125v-139h-125q-15 0 -26 -11t-11 -26v-552q0 -16 11 -26.5t26 -10.5h125z" />
    <glyph glyph-name="parenright" unicode=")" horiz-adv-x="382" 
d="M40 -154v139h125q15 0 26 10.5t11 26.5v552q0 15 -11 26t-26 11h-125v139h125q72 0 124 -51.5t52 -125.5v-551q0 -73 -51.5 -124.5t-124.5 -51.5h-125z" />
    <glyph glyph-name="asterisk" unicode="*" horiz-adv-x="417" 
d="M376 750v-85l-98 -61l98 -60v-85l-134 84v-144h-68v142l-134 -82v82l102 63l-102 64v82l134 -82v142h68v-143z" />
    <glyph glyph-name="plus" unicode="+" horiz-adv-x="522" 
d="M324 363h158v-127h-158v-157h-127v157h-157v127h157v158h127v-158z" />
    <glyph glyph-name="comma" unicode="," horiz-adv-x="262" 
d="M89 105h133l-53 -179h-129z" />
    <glyph glyph-name="hyphen" unicode="-" horiz-adv-x="380" 
d="M40 362h300v-125h-300v125z" />
    <glyph glyph-name="period" unicode="." horiz-adv-x="205" 
d="M40 105h125v-105h-125v105z" />
    <glyph glyph-name="slash" unicode="/" horiz-adv-x="387" 
d="M214 600h133l-178 -600h-128z" />
    <glyph glyph-name="zero" unicode="0" horiz-adv-x="521" 
d="M175 203v-45q0 -14 10 -23.5t24 -9.5h114q13 0 23 9.5t10 23.5v94zM323 600q65 0 111.5 -46.5t46.5 -112.5v-283q0 -65 -46.5 -111.5t-111.5 -46.5h-114q-65 0 -112 46.5t-47 111.5v283q0 66 47 112.5t112 46.5h114zM356 382v59q0 14 -9.5 24t-23.5 10h-114
q-14 0 -24 -10t-10 -24v-107z" />
    <glyph glyph-name="one" unicode="1" horiz-adv-x="307" 
d="M142 600h125v-600h-125v476h-92v42q0 27 27.5 54t64.5 28z" />
    <glyph glyph-name="two" unicode="2" horiz-adv-x="530" 
d="M203 248q-12 -2 -20 -12t-8 -23v-88h313v-125h-438v213q0 67 46.5 113.5t111.5 46.5q7 0 19 -3l116 -27q12 -3 13 -3q2 0 6 2q3 2 3 12v88q0 14 -10 23.5t-24 9.5h-124q-14 -1 -23 -10.5t-9 -22.5v-24h-125v24q0 63 43 108.5t105 49.5h10h123q66 0 112.5 -46.5
t46.5 -111.5v-88q0 -71 -51 -111q-37 -29 -83 -29q-16 0 -36 5z" />
    <glyph glyph-name="three" unicode="3" horiz-adv-x="518" 
d="M383 315q43 -19 69 -58.5t26 -88.5v-10q0 -65 -46.5 -111.5t-112.5 -46.5h-267v125h267q14 0 24 9.5t10 23.5v10q0 14 -10 24t-24 10h-167v126h78q14 0 24.5 10t10.5 24v80q0 13 -10.5 23t-24.5 10h-180v125h180q67 0 113.5 -46.5t46.5 -111.5v-80q0 -26 -7 -47z" />
    <glyph glyph-name="four" unicode="4" horiz-adv-x="521" 
d="M356 600h125v-600h-125v206q-13 -4 -33 -4h-114q-65 0 -112 47t-47 113v238h125v-238q0 -14 10 -24t24 -10h114q14 0 23.5 10t9.5 24v238z" />
    <glyph glyph-name="five" unicode="5" horiz-adv-x="529" 
d="M489 247v-88q0 -66 -46.5 -112.5t-112.5 -46.5h-125l-7 1q-62 4 -105 49.5t-43 108.5v24h125v-24q0 -14 9.5 -23.5t22.5 -10.5h123q14 0 24 10t10 24v88q0 11 -3 12l-2 1h-3q-3 0 -18 -3q-90 -22 -108 -26l-22 -4q-65 0 -111.5 46.5t-46.5 112.5v214h437v-125h-312v-89
q0 -13 6.5 -23t19.5 -10q5 0 8 1l110 27q16 4 36 4q49 0 83 -28q51 -40 51 -110z" />
    <glyph glyph-name="six" unicode="6" horiz-adv-x="521" 
d="M322 125q14 0 24 10t10 24v89q0 10 -4 12q-1 1 -6 1q-4 0 -7 -1l-164 -40v-63q0 -14 9 -23q11 -9 21 -9h117zM429 358q52 -41 52 -110v-89q0 -66 -47 -112.5t-112 -46.5h-123l-10 1q-54 6 -93 44q-46 46 -46 113v284q0 65 46.5 111.5t111.5 46.5h114q66 0 112.5 -46.5
t46.5 -111.5h-125q0 14 -10 23.5t-24 9.5h-114q-14 0 -23.5 -9.5t-9.5 -23.5v-93l135 33q16 4 36 4q49 0 83 -28z" />
    <glyph glyph-name="seven" unicode="7" horiz-adv-x="541" 
d="M50 600h451l-179 -600h-129l138 475h-281v125z" />
    <glyph glyph-name="eight" unicode="8" horiz-adv-x="530" 
d="M490 441v-28q0 -59 -34 -101q34 -44 34 -98v-55q0 -66 -46.5 -112.5t-112.5 -46.5h-122q-65 0 -112 45t-47 108v26q0 48 27 89q-27 38 -27 85v88q0 66 46.5 112.5t112.5 46.5h122q66 0 112.5 -46.5t46.5 -112.5zM365 214q0 12 -8 22t-20 11l-128 -30q-14 -4 -24 -14
t-10 -24v-21q1 -14 11 -23.5t23 -9.5h122q14 0 24 10t10 24v55zM314 370q24 6 36 14t13.5 13.5t1.5 15.5v29q-1 14 -11 23.5t-23 9.5h-122q-14 0 -24 -10t-10 -24v-88q0 -10 4 -12q2 -2 6 -2q1 0 13 3z" />
    <glyph glyph-name="nine" unicode="9" 
d="M355 381v62q0 13 -10 23q-9 9 -22 9h-114q-14 0 -24 -10t-10 -24v-88q0 -10 4 -12q1 -1 5 -1t7 1zM433 555q47 -47 47 -112v-284q0 -65 -46.5 -112t-112.5 -47h-112q-66 0 -112.5 47t-46.5 112h125q0 -14 10 -24t24 -10h112q14 0 24 10t10 24v93l-134 -33q-16 -4 -36 -4
q-49 0 -84 28q-51 40 -51 110v88q0 66 46.5 112.5t112.5 46.5h113q64 0 111 -45z" />
    <glyph glyph-name="colon" unicode=":" horiz-adv-x="205" 
d="M40 506h125v-106h-125v106zM40 310h125v-107h-125v107z" />
    <glyph glyph-name="semicolon" unicode=";" horiz-adv-x="265" 
d="M90 506h125v-106h-125v106zM82 287h133l-53 -180h-130z" />
    <glyph glyph-name="equal" unicode="=" horiz-adv-x="614" 
d="M40 233h534v-126h-534v126zM40 487h534v-126h-534v126z" />
    <glyph glyph-name="question" unicode="?" 
d="M164 106h126v-106h-126v106zM480 441v-61q0 -55 -38.5 -95.5t-117.5 -40.5q-14 0 -23.5 -10t-9.5 -25v-42h-126v42q0 67 46.5 113.5t112.5 46.5q31 0 31 25v47q0 14 -10 24t-24 10h-124q-13 -1 -22.5 -10.5t-9.5 -23.5v-24h-125v24q0 63 43 108.5t105 50.5h133
q66 0 112.5 -47t46.5 -112z" />
    <glyph glyph-name="at" unicode="@" horiz-adv-x="483" 
d="M187 150h266v-65h-266q-65 0 -111 46t-46 111v117q0 65 46 111t111 46h109q65 0 111 -46t46 -111v-89q0 -30 -21 -51t-51 -21h-42q-23 0 -40 12q-18 -12 -40 -12h-47q-30 0 -51 21t-21 51v59q0 30 21 51t51 21h119v-72v-59v-2q2 -6 8 -6h42q8 0 8 8v89q0 38 -27.5 65
t-65.5 27h-109q-38 0 -65 -27t-27 -65v-117q0 -38 27 -65t65 -27zM267 268v2v59q0 8 -8 8h-47q-8 0 -8 -8v-59q0 -8 8 -8h47q6 0 8 6z" />
    <glyph glyph-name="A" unicode="A" 
d="M355 351v90q0 13 -9.5 23t-23.5 10h-113q-13 0 -23 -10t-10 -23v-138zM322 600q66 0 112.5 -46.5t46.5 -112.5v-441h-126v222l-179 -49v-173h-126v441q0 66 46.5 112.5t112.5 46.5h113z" />
    <glyph glyph-name="B" unicode="B" horiz-adv-x="506" 
d="M166 333l77 18q10 3 18 11t8 12v67q0 14 -10 24t-24 10h-69v-142zM392 352q40 -20 64.5 -58t24.5 -84v-51q0 -66 -47 -112.5t-112 -46.5h-282v600h195q66 0 112.5 -46.5t46.5 -112.5v-66q0 -15 -2 -23zM355 155v55q0 12 -8 21.5t-20 11.5l-161 -39v-83h156q14 0 23.5 10
t9.5 24z" />
    <glyph glyph-name="C" unicode="C" horiz-adv-x="517" 
d="M478 398h-124v43q0 14 -9.5 24t-23.5 10h-112q-15 0 -25 -10t-10 -24v-282q0 -14 10 -24t25 -10h112q14 0 23.5 10t9.5 24v62h124v-62q0 -66 -46 -112.5t-111 -46.5h-112q-66 0 -112.5 46.5t-46.5 112.5v282q0 66 46.5 112.5t112.5 46.5h112q65 0 111 -46.5t46 -112.5
v-43z" />
    <glyph glyph-name="D" unicode="D" 
d="M355 157v285q0 13 -10 22.5t-24 9.5h-146v-349h146q14 0 24 9.5t10 22.5zM321 600q66 0 112.5 -46.5t46.5 -111.5v-285q0 -65 -46.5 -111t-112.5 -46h-271v600h271z" />
    <glyph glyph-name="E" unicode="E" horiz-adv-x="458" 
d="M175 159q0 -14 10 -23.5t24 -9.5h209v-126h-209q-66 0 -112.5 46.5t-46.5 112.5v283q0 66 46 112t113 46h208v-124h-208q-14 0 -24 -10t-10 -24v-128l184 49v-130l-184 -48v-26z" />
    <glyph glyph-name="F" unicode="F" horiz-adv-x="458" 
d="M208 475q-13 0 -23 -10t-10 -24v-128l184 49v-130l-184 -49v-183h-125v441q0 66 46 112.5t112 46.5h210v-125h-210z" />
    <glyph glyph-name="G" unicode="G" horiz-adv-x="518" 
d="M478 400l-125 -1v43q0 14 -10 24t-24 10h-112q-14 0 -23.5 -10t-9.5 -24v-284q0 -14 10 -23.5t23 -9.5h112q14 0 24 9t10 22v33l-90 -22v129l215 54v-193q0 -65 -47 -111t-112 -46h-112q-65 0 -111 46.5t-46 111.5v284q0 65 46 111.5t111 46.5h112q65 0 112 -46.5
t47 -111.5v-42z" />
    <glyph glyph-name="H" unicode="H" 
d="M355 600h125v-600h-125v222l-180 -49v-173h-125v600h125v-297l180 48v249z" />
    <glyph glyph-name="I" unicode="I" horiz-adv-x="215" 
d="M50 600h125v-600h-125v600z" />
    <glyph glyph-name="J" unicode="J" horiz-adv-x="519" 
d="M354 600h125v-441q0 -66 -46 -112.5t-111 -46.5h-113q-66 0 -112.5 46.5t-46.5 112.5v103h125v-103q0 -14 10 -24t24 -10h113q13 0 22.5 10t9.5 24v441z" />
    <glyph glyph-name="K" unicode="K" horiz-adv-x="496" 
d="M471 600l-88 -317l76 -283h-130l-57 211l-97 -27v-184h-125v600h125v-286l94 25l70 261h132z" />
    <glyph glyph-name="L" unicode="L" horiz-adv-x="443" 
d="M417 125l1 -125h-209q-65 0 -112 46.5t-47 111.5v442h125v-442q0 -14 10 -23.5t24 -9.5h208z" />
    <glyph glyph-name="M" unicode="M" horiz-adv-x="691" 
d="M492 600q66 0 112.5 -46.5t46.5 -112.5v-441h-125v441q0 14 -10 23.5t-24 9.5h-45q-14 0 -24 -10t-10 -23v-221l-125 -31v252q0 13 -10 23t-24 10h-79v-474h-125v600h204q52 0 97 -33q43 33 96 33h45z" />
    <glyph glyph-name="N" unicode="N" horiz-adv-x="522" 
d="M325 600q64 0 110.5 -47t46.5 -112v-441h-125v441q0 14 -9.5 24t-22.5 10h-150v-475h-125v600h275z" />
    <glyph glyph-name="O" unicode="O" horiz-adv-x="500" 
d="M345 158v283q0 13 -9.5 23t-23.5 10h-114q-14 0 -23.5 -10t-9.5 -23v-283q0 -14 9.5 -23.5t23.5 -9.5h114q14 0 23.5 9.5t9.5 23.5zM312 600q65 0 111.5 -47t46.5 -112v-283q0 -65 -46.5 -111.5t-111.5 -46.5h-114q-65 0 -111.5 46.5t-46.5 111.5v283q0 65 46.5 112
t111.5 47h114z" />
    <glyph glyph-name="P" unicode="P" horiz-adv-x="516" 
d="M365 385v56q0 13 -9.5 23t-23.5 10h-157v-163l173 45q17 11 17 29zM332 600q65 0 111.5 -46.5t46.5 -112.5v-56q0 -55 -35.5 -97.5t-88.5 -56.5l-191 -50v-181h-125v600h282z" />
    <glyph glyph-name="Q" unicode="Q" 
d="M324 601q65 0 112 -46.5t47 -111.5v-284q0 -48 -31.5 -88.5t-77.5 -58.5l17 -72h-131l-13 61h-37q-65 0 -111.5 46t-46.5 112v284q0 65 46.5 111.5t111.5 46.5h114zM358 159v284q0 14 -10 23.5t-24 9.5h-114q-14 0 -23.5 -10t-9.5 -23v-284q0 -13 9.5 -23t23.5 -10h8
l-19 76l122 33l25 -101l6 6q6 12 6 19z" />
    <glyph glyph-name="R" unicode="R" horiz-adv-x="516" 
d="M362 385v56q0 13 -10 23t-23 10h-157v-163l173 45q17 11 17 29zM487 385q0 -46 -24.5 -84t-65.5 -58l65 -243h-129l-56 209l-105 -28v-181h-125v600h282q65 0 111.5 -46.5t46.5 -112.5v-56z" />
    <glyph glyph-name="S" unicode="S" horiz-adv-x="531" 
d="M491 417h-125v24q0 13 -9.5 22.5t-23.5 10.5h-123q-14 0 -24.5 -10t-10.5 -23v-89q0 -9 3 -12q1 -1 6 -1t8 1l111 26q19 4 29 4q64 0 111.5 -46.5t47.5 -111.5v-54q0 -66 -47 -112.5t-112 -46.5h-123q-66 0 -112.5 46.5t-46.5 112.5v5h125v-5q0 -14 10.5 -24t23.5 -10
h123q14 0 24 10t10 24v54q0 27 -29 34l-116 -29q-16 -4 -36 -4q-50 0 -83 29q-52 39 -52 110v88q0 66 47 113t113 47h132q62 0 105.5 -47.5t43.5 -111.5v-24z" />
    <glyph glyph-name="T" unicode="T" horiz-adv-x="490" 
d="M50 600h410v-125h-141v-475h-126v475h-143v125z" />
    <glyph glyph-name="U" unicode="U" 
d="M355 600h125v-442q0 -65 -46.5 -111.5t-111.5 -46.5h-114q-65 0 -111.5 46.5t-46.5 111.5v442h125v-442q0 -14 9.5 -23.5t23.5 -9.5h114q14 0 23.5 9.5t9.5 23.5v442z" />
    <glyph glyph-name="V" unicode="V" horiz-adv-x="535" 
d="M510 600l-178 -600h-129l-178 600h133l109 -377l110 377h133z" />
    <glyph glyph-name="W" unicode="W" horiz-adv-x="690" 
d="M525 600h125v-600h-204q-54 0 -96 33q-42 -33 -96 -33h-45q-66 0 -112.5 46.5t-46.5 112.5v441h125v-441q0 -14 10 -24t24 -10h45q14 0 24 10t10 24v220l125 31v-251q0 -14 9.5 -24t23.5 -10h79v475z" />
    <glyph glyph-name="X" unicode="X" horiz-adv-x="475" 
d="M449 600l-87 -300l87 -300h-130l-70 237h-24l-71 -237h-129l87 300l-87 300h129l71 -238h24l70 238h130z" />
    <glyph glyph-name="Y" unicode="Y" horiz-adv-x="491" 
d="M335 600h126v-239q0 -64 -44.5 -110t-108.5 -49v-202h-125v202q-64 3 -108.5 49t-44.5 110v239h126v-239q0 -14 10 -24t24 -10h112q14 0 23.5 10t9.5 24v239z" />
    <glyph glyph-name="Z" unicode="Z" horiz-adv-x="470" 
d="M191 126h238v-126h-261q-76 0 -108 56q-11 19 -11 47q0 38 24 74l2 3l223 294h-243v126h264q75 0 108 -57q11 -18 11 -47q0 -38 -24 -75z" />
    <glyph glyph-name="bracketleft" unicode="[" horiz-adv-x="381" 
d="M341 -15v-139h-125q-73 0 -124.5 51.5t-51.5 124.5v551q0 74 52 125.5t124 51.5h125v-139h-125q-15 0 -26 -11t-11 -26v-552q0 -16 11 -26.5t26 -10.5h125z" />
    <glyph glyph-name="backslash" unicode="\" horiz-adv-x="387" 
d="M41 600h133l173 -600h-128z" />
    <glyph glyph-name="bracketright" unicode="]" horiz-adv-x="382" 
d="M40 -154v139h125q15 0 26 10.5t11 26.5v552q0 15 -11 26t-26 11h-125v139h125q72 0 124 -51.5t52 -125.5v-551q0 -73 -51.5 -124.5t-124.5 -51.5h-125z" />
    <glyph glyph-name="a" unicode="a" 
d="M355 351v90q0 13 -9.5 23t-23.5 10h-113q-13 0 -23 -10t-10 -23v-138zM322 600q66 0 112.5 -46.5t46.5 -112.5v-441h-126v222l-179 -49v-173h-126v441q0 66 46.5 112.5t112.5 46.5h113z" />
    <glyph glyph-name="b" unicode="b" horiz-adv-x="506" 
d="M166 333l77 18q10 3 18 11t8 12v67q0 14 -10 24t-24 10h-69v-142zM392 352q40 -20 64.5 -58t24.5 -84v-51q0 -66 -47 -112.5t-112 -46.5h-282v600h195q66 0 112.5 -46.5t46.5 -112.5v-66q0 -15 -2 -23zM355 155v55q0 12 -8 21.5t-20 11.5l-161 -39v-83h156q14 0 23.5 10
t9.5 24z" />
    <glyph glyph-name="c" unicode="c" horiz-adv-x="517" 
d="M478 398h-124v43q0 14 -9.5 24t-23.5 10h-112q-15 0 -25 -10t-10 -24v-282q0 -14 10 -24t25 -10h112q14 0 23.5 10t9.5 24v62h124v-62q0 -66 -46 -112.5t-111 -46.5h-112q-66 0 -112.5 46.5t-46.5 112.5v282q0 66 46.5 112.5t112.5 46.5h112q65 0 111 -46.5t46 -112.5
v-43z" />
    <glyph glyph-name="d" unicode="d" 
d="M355 157v285q0 13 -10 22.5t-24 9.5h-146v-349h146q14 0 24 9.5t10 22.5zM321 600q66 0 112.5 -46.5t46.5 -111.5v-285q0 -65 -46.5 -111t-112.5 -46h-271v600h271z" />
    <glyph glyph-name="e" unicode="e" horiz-adv-x="458" 
d="M175 159q0 -14 10 -23.5t24 -9.5h209v-126h-209q-66 0 -112.5 46.5t-46.5 112.5v283q0 66 46 112t113 46h208v-124h-208q-14 0 -24 -10t-10 -24v-128l184 49v-130l-184 -48v-26z" />
    <glyph glyph-name="f" unicode="f" horiz-adv-x="458" 
d="M208 475q-13 0 -23 -10t-10 -24v-128l184 49v-130l-184 -49v-183h-125v441q0 66 46 112.5t112 46.5h210v-125h-210z" />
    <glyph glyph-name="g" unicode="g" horiz-adv-x="518" 
d="M478 400l-125 -1v43q0 14 -10 24t-24 10h-112q-14 0 -23.5 -10t-9.5 -24v-284q0 -14 10 -23.5t23 -9.5h112q14 0 24 9t10 22v33l-90 -22v129l215 54v-193q0 -65 -47 -111t-112 -46h-112q-65 0 -111 46.5t-46 111.5v284q0 65 46 111.5t111 46.5h112q65 0 112 -46.5
t47 -111.5v-42z" />
    <glyph glyph-name="h" unicode="h" 
d="M355 600h125v-600h-125v222l-180 -49v-173h-125v600h125v-297l180 48v249z" />
    <glyph glyph-name="i" unicode="i" horiz-adv-x="215" 
d="M50 600h125v-600h-125v600z" />
    <glyph glyph-name="j" unicode="j" horiz-adv-x="519" 
d="M354 600h125v-441q0 -66 -46 -112.5t-111 -46.5h-113q-66 0 -112.5 46.5t-46.5 112.5v103h125v-103q0 -14 10 -24t24 -10h113q13 0 22.5 10t9.5 24v441z" />
    <glyph glyph-name="k" unicode="k" horiz-adv-x="496" 
d="M471 600l-88 -317l76 -283h-130l-57 211l-97 -27v-184h-125v600h125v-286l94 25l70 261h132z" />
    <glyph glyph-name="l" unicode="l" horiz-adv-x="443" 
d="M417 125l1 -125h-209q-65 0 -112 46.5t-47 111.5v442h125v-442q0 -14 10 -23.5t24 -9.5h208z" />
    <glyph glyph-name="m" unicode="m" horiz-adv-x="691" 
d="M492 600q66 0 112.5 -46.5t46.5 -112.5v-441h-125v441q0 14 -10 23.5t-24 9.5h-45q-14 0 -24 -10t-10 -23v-221l-125 -31v252q0 13 -10 23t-24 10h-79v-474h-125v600h204q52 0 97 -33q43 33 96 33h45z" />
    <glyph glyph-name="n" unicode="n" horiz-adv-x="522" 
d="M325 600q64 0 110.5 -47t46.5 -112v-441h-125v441q0 14 -9.5 24t-22.5 10h-150v-475h-125v600h275z" />
    <glyph glyph-name="o" unicode="o" horiz-adv-x="500" 
d="M345 158v283q0 13 -9.5 23t-23.5 10h-114q-14 0 -23.5 -10t-9.5 -23v-283q0 -14 9.5 -23.5t23.5 -9.5h114q14 0 23.5 9.5t9.5 23.5zM312 600q65 0 111.5 -47t46.5 -112v-283q0 -65 -46.5 -111.5t-111.5 -46.5h-114q-65 0 -111.5 46.5t-46.5 111.5v283q0 65 46.5 112
t111.5 47h114z" />
    <glyph glyph-name="p" unicode="p" horiz-adv-x="516" 
d="M365 385v56q0 13 -9.5 23t-23.5 10h-157v-163l173 45q17 11 17 29zM332 600q65 0 111.5 -46.5t46.5 -112.5v-56q0 -55 -35.5 -97.5t-88.5 -56.5l-191 -50v-181h-125v600h282z" />
    <glyph glyph-name="q" unicode="q" 
d="M324 601q65 0 112 -46.5t47 -111.5v-284q0 -48 -31.5 -88.5t-77.5 -58.5l17 -72h-131l-13 61h-37q-65 0 -111.5 46t-46.5 112v284q0 65 46.5 111.5t111.5 46.5h114zM358 159v284q0 14 -10 23.5t-24 9.5h-114q-14 0 -23.5 -10t-9.5 -23v-284q0 -13 9.5 -23t23.5 -10h8
l-19 76l122 33l25 -101l6 6q6 12 6 19z" />
    <glyph glyph-name="r" unicode="r" horiz-adv-x="516" 
d="M362 385v56q0 13 -10 23t-23 10h-157v-163l173 45q17 11 17 29zM487 385q0 -46 -24.5 -84t-65.5 -58l65 -243h-129l-56 209l-105 -28v-181h-125v600h282q65 0 111.5 -46.5t46.5 -112.5v-56z" />
    <glyph glyph-name="s" unicode="s" horiz-adv-x="531" 
d="M491 417h-125v24q0 13 -9.5 22.5t-23.5 10.5h-123q-14 0 -24.5 -10t-10.5 -23v-89q0 -9 3 -12q1 -1 6 -1t8 1l111 26q19 4 29 4q64 0 111.5 -46.5t47.5 -111.5v-54q0 -66 -47 -112.5t-112 -46.5h-123q-66 0 -112.5 46.5t-46.5 112.5v5h125v-5q0 -14 10.5 -24t23.5 -10
h123q14 0 24 10t10 24v54q0 27 -29 34l-116 -29q-16 -4 -36 -4q-50 0 -83 29q-52 39 -52 110v88q0 66 47 113t113 47h132q62 0 105.5 -47.5t43.5 -111.5v-24z" />
    <glyph glyph-name="t" unicode="t" horiz-adv-x="490" 
d="M50 600h410v-125h-141v-475h-126v475h-143v125z" />
    <glyph glyph-name="u" unicode="u" 
d="M355 600h125v-442q0 -65 -46.5 -111.5t-111.5 -46.5h-114q-65 0 -111.5 46.5t-46.5 111.5v442h125v-442q0 -14 9.5 -23.5t23.5 -9.5h114q14 0 23.5 9.5t9.5 23.5v442z" />
    <glyph glyph-name="v" unicode="v" horiz-adv-x="535" 
d="M510 600l-178 -600h-129l-178 600h133l109 -377l110 377h133z" />
    <glyph glyph-name="w" unicode="w" horiz-adv-x="690" 
d="M525 600h125v-600h-204q-54 0 -96 33q-42 -33 -96 -33h-45q-66 0 -112.5 46.5t-46.5 112.5v441h125v-441q0 -14 10 -24t24 -10h45q14 0 24 10t10 24v220l125 31v-251q0 -14 9.5 -24t23.5 -10h79v475z" />
    <glyph glyph-name="x" unicode="x" horiz-adv-x="475" 
d="M449 600l-87 -300l87 -300h-130l-70 237h-24l-71 -237h-129l87 300l-87 300h129l71 -238h24l70 238h130z" />
    <glyph glyph-name="y" unicode="y" horiz-adv-x="491" 
d="M335 600h126v-239q0 -64 -44.5 -110t-108.5 -49v-202h-125v202q-64 3 -108.5 49t-44.5 110v239h126v-239q0 -14 10 -24t24 -10h112q14 0 23.5 10t9.5 24v239z" />
    <glyph glyph-name="z" unicode="z" horiz-adv-x="470" 
d="M191 126h238v-126h-261q-76 0 -108 56q-11 19 -11 47q0 38 24 74l2 3l223 294h-243v126h264q75 0 108 -57q11 -18 11 -47q0 -38 -24 -75z" />
    <glyph glyph-name="endash" unicode="&#x2013;" horiz-adv-x="518" 
d="M40 362h438v-125h-438v125z" />
    <glyph glyph-name="emdash" unicode="&#x2014;" horiz-adv-x="680" 
d="M40 362h600v-125h-600v125z" />
    <glyph glyph-name="quoteleft" unicode="&#x2018;" horiz-adv-x="263" 
d="M173 750l50 -179h-130l-53 179h133z" />
    <glyph glyph-name="quoteright" unicode="&#x2019;" horiz-adv-x="263" 
d="M40 571l50 179h133l-53 -179h-130z" />
    <glyph glyph-name="quotedblleft" unicode="&#x201c;" horiz-adv-x="449" 
d="M174 750l49 -179h-130l-53 179h134zM359 750l50 -179h-130l-53 179h133z" />
    <glyph glyph-name="quotedblright" unicode="&#x201d;" horiz-adv-x="449" 
d="M226 571l49 179h134l-53 -179h-130zM40 571l50 179h133l-53 -179h-130z" />
    <glyph glyph-name="CR" horiz-adv-x="250" 
 />
    <glyph glyph-name="altM" horiz-adv-x="691" 
d="M492 600q66 0 112.5 -46.5t46.5 -112.5v-441h-125v441q0 14 -10 23.5t-24 9.5h-45q-14 0 -24 -10t-10 -23v-221l-125 -31v252q0 13 -10 23t-24 10h-45q-14 0 -24 -9.5t-10 -23.5v-441h-125v441q0 66 46.5 112.5t112.5 46.5h45q52 0 97 -33q43 33 96 33h45z" />
    <glyph glyph-name="altN" horiz-adv-x="517" 
d="M257 552l95 -329v377h125v-600h-140q-20 0 -39 14.5t-25 34.5l-99 334v-383h-124v600h143q20 0 39 -14t25 -34z" />
    <glyph glyph-name="altS" horiz-adv-x="521" 
d="M481 197v-39q-1 -66 -47 -112t-112 -46h-114q-65 0 -111.5 46.5t-46.5 112.5v43h125v-43q0 -14 9.5 -24t23.5 -10h114q14 0 24 10t10 26v40q-1 17 -23.5 29.5t-70.5 12.5q-117 0 -172 64q-39 44 -39 113v23q1 65 47.5 111t111.5 46h112q66 0 112.5 -46.5t46.5 -112.5v-24
h-125v24q0 14 -10 24t-24 10h-112q-14 0 -24 -10t-10 -26v-30q0 -12 8 -21q20 -20 78 -20q117 0 176 -62q43 -45 43 -103v-6z" />
    </font>
</defs>
</svg>
